<?xml version="1.0" standalone="no"?>
<!DOCTYPE svg PUBLIC "-//W3C//DTD SVG 20010904//EN"
 "http://www.w3.org/TR/2001/REC-SVG-20010904/DTD/svg10.dtd">
<svg version="1.0" xmlns="http://www.w3.org/2000/svg"
 width="1280.000000pt" height="840.000000pt" viewBox="0 0 1280.000000 840.000000"
 preserveAspectRatio="xMidYMid meet">
<metadata>
Created by potrace 1.15, written by Peter Selinger 2001-2017
</metadata>
<g transform="translate(0.000000,840.000000) scale(0.100000,-0.100000)"
fill="#EBB42C" stroke="none">
<path d="M9560 8376 c0 -3 18 -81 39 -173 22 -93 51 -226 66 -298 l27 -130
-51 -175 c-135 -459 -249 -762 -524 -1390 -549 -1256 -602 -1362 -915 -1797
l-94 -132 -52 -5 c-28 -3 -319 -19 -646 -36 -327 -17 -669 -35 -760 -40 -91
-5 -253 -14 -360 -20 -107 -6 -276 -15 -375 -20 -99 -6 -351 -19 -560 -30
-209 -11 -462 -24 -562 -30 -101 -5 -267 -15 -370 -20 -104 -6 -268 -15 -366
-21 l-177 -10 -158 53 c-97 33 -168 62 -185 78 l-28 25 46 214 c56 262 75 382
75 484 0 140 -27 163 -197 161 -71 -1 -118 -6 -127 -13 -8 -7 -71 -119 -141
-249 -70 -130 -130 -241 -135 -245 -4 -5 -440 302 -969 683 l-960 691 -193
-22 c-106 -11 -198 -24 -204 -28 -8 -4 47 -81 145 -207 86 -110 442 -566 791
-1013 349 -447 635 -817 635 -824 0 -6 -32 -18 -72 -28 -136 -34 -203 -80
-203 -140 0 -52 39 -95 123 -134 l69 -32 -33 -20 c-19 -11 -443 -226 -942
-478 -629 -317 -904 -461 -894 -467 8 -4 66 -9 128 -10 l114 -2 400 146 c550
200 987 372 1327 522 158 69 304 128 325 132 31 5 73 -7 223 -59 329 -115 637
-201 1390 -386 610 -150 708 -168 1060 -196 189 -15 406 -10 1104 25 109 6
208 10 220 9 21 0 -1589 -806 -2569 -1286 -800 -392 -1621 -736 -2788 -1168
l-468 -174 -237 24 c-130 13 -302 31 -382 40 -171 18 -160 17 -160 6 0 -4 19
-11 43 -14 23 -3 161 -24 307 -47 146 -23 290 -45 320 -50 30 -5 116 -18 191
-30 l135 -21 370 115 c203 63 618 191 921 285 523 162 596 188 1335 470 1281
489 2005 775 2286 903 211 96 270 119 295 115 18 -3 116 -20 218 -37 l186 -33
67 35 66 36 -6 -27 c-12 -47 -21 -56 -88 -81 -36 -13 -66 -27 -66 -31 0 -4 29
-25 64 -48 l63 -41 6 -66 c14 -152 107 -257 277 -313 79 -26 259 -56 434 -72
234 -21 588 4 692 50 97 43 187 177 219 326 40 191 -12 382 -140 511 -54 55
-70 65 -141 87 -98 31 -337 52 -469 42 -155 -12 -167 -14 -304 -45 -140 -32
-225 -37 -410 -23 l-92 6 158 59 c811 303 1045 385 1368 478 187 55 372 104
410 109 102 15 784 41 1350 51 724 13 1107 42 1390 106 154 35 481 128 600
170 211 76 425 195 521 292 78 78 132 158 139 207 6 35 2 55 -18 99 -35 76
-150 189 -263 259 -376 230 -801 380 -1159 407 -82 7 -151 13 -153 15 -1 1 2
24 8 51 15 65 14 208 -1 269 -33 137 -123 261 -223 310 -146 70 -544 77 -822
15 -99 -23 -157 -30 -233 -30 -55 0 -101 3 -101 6 0 3 13 67 30 142 108 501
166 906 286 2007 32 292 62 533 68 537 14 9 13 9 -288 349 -236 266 -296 328
-296 305z"/>
</g>
</svg>
