<!DOCTYPE svg PUBLIC "-//W3C//DTD SVG 1.1//EN" "http://www.w3.org/Graphics/SVG/1.1/DTD/svg11.dtd">
<!-- Uploaded to: SVG Repo, www.svgrepo.com, Transformed by: SVG Repo Mixer Tools -->
<svg width="256px" height="256px" viewBox="0 0 24 24" fill="none" xmlns="http://www.w3.org/2000/svg">
<g id="SVGRepo_bgCarrier" stroke-width="0"/>
<g id="SVGRepo_tracerCarrier" stroke-linecap="round" stroke-linejoin="round"/>
<g id="SVGRepo_iconCarrier"> <g opacity="0.4"> <path d="M18.4098 18.0898L15.5898 20.9098" stroke="#EBB42C" stroke-width="1.5" stroke-linecap="round" stroke-linejoin="round"/> <path d="M18.4098 20.9098L15.5898 18.0898" stroke="#EBB42C" stroke-width="1.5" stroke-linecap="round" stroke-linejoin="round"/> </g> <path opacity="0.4" d="M12.1605 10.87C12.0605 10.86 11.9405 10.86 11.8305 10.87C9.45055 10.79 7.56055 8.84 7.56055 6.44C7.56055 3.99 9.54055 2 12.0005 2C14.4505 2 16.4405 3.99 16.4405 6.44C16.4305 8.84 14.5405 10.79 12.1605 10.87Z" stroke="#EBB42C" stroke-width="1.5" stroke-linecap="round" stroke-linejoin="round"/> <path d="M12.0008 21.8102C10.1808 21.8102 8.37078 21.3502 6.99078 20.4302C4.57078 18.8102 4.57078 16.1702 6.99078 14.5602C9.74078 12.7202 14.2508 12.7202 17.0008 14.5602" stroke="#EBB42C" stroke-width="1.5" stroke-linecap="round" stroke-linejoin="round"/> </g>
</svg>