<!DOCTYPE svg PUBLIC "-//W3C//DTD SVG 1.1//EN" "http://www.w3.org/Graphics/SVG/1.1/DTD/svg11.dtd">
<!-- Uploaded to: SVG Repo, www.svgrepo.com, Transformed by: SVG Repo Mixer Tools -->
<svg fill="#EBB42C" version="1.1" id="Capa_1" xmlns="http://www.w3.org/2000/svg" xmlns:xlink="http://www.w3.org/1999/xlink" width="800px" height="800px" viewBox="0 0 687.779 687.779" xml:space="preserve">
<g id="SVGRepo_bgCarrier" stroke-width="0"/>
<g id="SVGRepo_tracerCarrier" stroke-linecap="round" stroke-linejoin="round"/>
<g id="SVGRepo_iconCarrier"> <g> <path d="M345.916,311.717l-166.001,137v125.601v42.399v5.101h332.001v-4.601v-42.899V449.216L345.916,311.717z M343.417,555.817 h-61.5v-57.5h61.5V555.817z M343.417,490.817h-61.5v-57.5h61.5V490.817z M412.916,555.817h-61.5v-57.5h61.5V555.817z M412.916,490.817h-61.5v-57.5h61.5V490.817z"/> <polygon points="345.961,65.962 183.51,197.855 183.51,137.286 123.39,137.286 123.39,247.355 0,348.786 38.25,395.316 121.95,326.466 121.95,551.826 155.16,551.826 155.16,543.186 155.16,428.166 345.961,270.666 345.961,270.666 426.061,337.536 426.061,288.846 467.82,288.846 467.82,371.916 536.58,428.706 536.58,543.186 536.58,551.826 568.621,551.826 568.621,328.716 649.529,395.316 687.779,348.786 "/> </g> </g>
</svg>